<?xml version="1.0" encoding="utf-8"?>
<!-- Generator: Adobe Illustrator 16.0.0, SVG Export Plug-In . SVG Version: 6.00 Build 0)  -->
<!DOCTYPE svg PUBLIC "-//W3C//DTD SVG 1.1//EN" "http://www.w3.org/Graphics/SVG/1.1/DTD/svg11.dtd">
<svg version="1.1" id="Layer_1" xmlns="http://www.w3.org/2000/svg" xmlns:xlink="http://www.w3.org/1999/xlink" x="0px" y="0px"
     width="3778.877px" height="888.971px" viewBox="0 0 3778.877 888.971" style="enable-background:new 0 0 3778.877 888.971;"
     xml:space="preserve">
<g>
	<g>
		<path style="fill:#4A46E5;" d="M3700.928,89.203h-1802.52C1821.786,31.331,1728.914,0,1631.221,0
			c-97.694,0-190.566,31.33-267.188,89.203H77.949C34.967,89.203,0,124.172,0,167.153v552.563c0,42.98,34.967,77.946,77.949,77.946
			h1283.332c77.145,59.2,171.072,91.308,269.939,91.308c101.268,0,194.714-34.066,269.536-91.308h1800.172
			c42.982,0,77.949-34.966,77.949-77.946V167.153C3778.877,124.172,3743.911,89.203,3700.928,89.203z M476.157,594.418
			c-40.888,36.903-94.614,55.354-161.178,55.354H169.54v-402.13h145.439c32.917,0,63.13,4.885,90.629,14.652
			c27.49,9.769,50.919,23.336,70.277,40.702c19.351,17.366,34.46,38.53,45.314,63.493c10.854,24.963,16.28,52.463,16.28,82.488
			C537.48,509.039,517.037,557.516,476.157,594.418z M769.205,444.096c-20.623-0.357-37.717,0.271-51.285,1.898
			c-13.567,1.629-24.42,3.713-32.561,6.241c-8.141,2.536-14.203,6.604-18.18,12.21c-3.985,5.613-6.605,11.311-7.869,17.094
			c-1.272,5.793-1.899,13.755-1.899,23.879v144.354h-84.116l-1.628-157.922c0.356-19.17,2.892-36.265,7.598-51.282
			c4.697-15.009,10.396-27.312,17.095-36.902c6.69-9.582,15.279-17.639,25.778-24.15c10.489-6.512,20.435-11.303,29.847-14.382
			c9.404-3.068,20.528-5.332,33.375-6.783c12.838-1.44,23.336-2.076,31.476-1.898c8.14,0.188,17.994,0.458,29.576,0.814
			c11.575,0.363,19.172,0.542,22.793,0.542V444.096z M1091.552,648.688l-0.106-0.154c-0.648-0.256-3.862-0.39-9.663-0.39
			c-6.877,0-14.923,0-24.149,0c-9.226,0-18.723,0.095-28.491,0.272c-9.768,0.186-18.094,0.363-24.963,0.542
			c-6.877,0.187-10.676,0.458-11.397,0.813c-0.729,0.357-6.24-7.055-16.552-22.25c-10.311-15.194-21.352-31.652-33.104-49.384
			c-11.761-17.722-18.91-28.033-21.437-30.933l-32.019,27.676l-1.085,75.977l-83.031-1.086V247.1h83.031l-0.543,220.873
			L992.783,358.35l102.567,0.543L982.473,491.309l108.973,157.225C1091.565,648.581,1091.607,648.632,1091.552,648.688z
			 M1631.221,859.12c-228.642,0-414.643-186.015-414.643-414.642s186.001-414.642,414.643-414.642
			c228.626,0,414.641,186.015,414.641,414.642S1859.847,859.12,1631.221,859.12z M3749.208,719.717
			c0,26.662-21.618,48.277-48.28,48.277h-1765.24c86.139-81.117,140.011-196.138,140.011-323.516
			c0-118.721-46.231-230.357-130.175-314.289c-3.863-3.861-7.803-7.616-11.781-11.317h1767.186c26.662,0,48.28,21.615,48.28,48.281
			V719.717z"/>
	</g>
    <g>
		<path style="fill:#4A46E5;" d="M410.493,355.637c-24.244-22.063-56.083-33.104-95.513-33.104h-55.896v243.666h55.896
			c9.769,0,19.172-0.722,28.22-2.172c9.04-1.441,17.544-3.527,25.506-6.241c7.954-2.713,15.466-6.146,22.521-10.31
			c7.056-4.155,13.381-8.862,18.994-14.111c5.605-5.239,10.667-11.124,15.196-17.637c4.519-6.512,8.411-13.38,11.667-20.621
			c3.256-7.234,5.699-15.196,7.327-23.879c1.627-8.683,2.442-17.544,2.442-26.592C446.853,407.379,434.727,377.71,410.493,355.637z"
        />
	</g>
</g>
    <g>
	<g>
		<path style="fill:#4A46E5;" d="M2259.123,648.144l-90.628,1.085l0.543-403.757h89.543l114.506,133.501l117.764-134.586h88.457
			l-1.628,404.301l-89.543-0.544l-0.544-271.884l-115.591,128.072l-111.792-131.329L2259.123,648.144z"/>
        <path style="fill:#4A46E5;" d="M2850.377,373.273c23.336,12.482,41.516,30.12,54.539,52.913
			c13.025,22.792,19.537,48.841,19.537,78.146c0,29.306-6.512,55.354-19.537,78.148c-13.023,22.792-31.297,40.428-54.811,52.91
			c-23.521,12.482-50.292,18.723-80.318,18.723c-39.803,0-73.627-11.031-101.481-33.104c-35.097-28.22-52.64-67.105-52.64-116.678
			c0-38.708,11.209-71.447,33.646-98.225c28.94-34.368,69.099-51.555,120.476-51.555
			C2800.179,354.553,2827.042,360.793,2850.377,373.273z M2810.76,564.027c10.668-6.146,18.901-14.559,24.693-25.234
			c5.782-10.668,8.684-22.699,8.684-36.089c0-20.258-6.514-37.08-19.537-50.469c-13.024-13.382-29.67-20.081-49.928-20.081
			c-20.621,0-37.631,6.699-51.013,20.081c-13.389,13.389-20.079,30.211-20.079,50.469c0,10.133,1.713,19.536,5.155,28.22
			c3.435,8.683,8.318,16.104,14.653,22.25c6.326,6.157,13.838,11.041,22.521,14.652c8.684,3.621,18.265,5.427,28.762,5.427
			C2788.053,573.253,2800.085,570.185,2810.76,564.027z"/>
        <path style="fill:#4A46E5;" d="M2980.619,428.356c12.118-23.149,29.577-41.872,52.37-56.168
			c22.793-14.287,48.111-21.071,75.977-20.35c21.342,0.729,40.607,4.884,57.795,12.48c17.18,7.599,29.576,18.639,37.174,33.104
			l1.629-153.037h88.457l0.543,258.317c-1.086,25.692-7.148,48.571-18.18,68.649c-11.041,20.08-25.15,36.088-42.33,48.027
			c-17.188,11.94-36.275,20.895-57.253,26.863c-20.987,5.971-43.059,8.59-66.208,7.869c-38.353-1.449-72.177-16.458-101.482-45.043
			c-30.033-30.025-45.407-65.479-46.129-106.366C2962.618,476.299,2968.494,451.514,2980.619,428.356z M3200.136,498.091
			c0-19.714-6.784-36.088-20.352-49.112c-13.566-13.023-30.849-19.537-51.826-19.537c-20.987,0-38.353,6.514-52.098,19.537
			c-13.754,13.024-20.622,29.398-20.622,49.112c0,19.725,6.868,36.089,20.622,49.114c13.745,13.023,31.11,19.536,52.098,19.536
			c20.978,0,38.26-6.513,51.826-19.536C3193.352,534.18,3200.136,517.815,3200.136,498.091z"/>
        <path style="fill:#4A46E5;" d="M3356.965,406.107c28.221-33.283,67.107-49.928,116.678-49.928c17.367,0,33.918,2.357,49.656,7.055
			c15.738,4.707,29.848,11.854,42.329,21.437c12.481,9.59,23.148,20.985,32.019,34.189c8.861,13.211,15.373,28.763,19.537,46.67
			c4.154,17.908,5.334,37.36,3.527,58.339l-207.849-0.543c0.72,7.598,2.984,14.474,6.783,20.622
			c3.799,6.156,8.59,11.125,14.382,14.925c5.782,3.799,12.21,6.783,19.265,8.953c7.056,2.172,14.737,3.443,23.064,3.8
			c6.868,0.364,13.566-0.543,20.079-2.714c6.512-2.171,11.939-4.885,16.281-8.14c4.341-3.257,8.225-6.598,11.667-10.04
			c3.436-3.435,5.877-6.24,7.327-8.412c1.441-2.17,2.17-3.434,2.17-3.799l74.891,38.531c-12.305,22.792-30.577,40.973-54.811,54.539
			c-24.243,13.567-51.199,19.986-80.86,19.266c-37.988-0.729-70.371-11.574-97.142-32.561
			c-35.096-27.855-52.64-66.752-52.64-116.679C3323.32,463.996,3334.53,432.154,3356.965,406.107z M3533.338,456.033
			c-0.729-9.768-6.605-17.365-17.638-22.791c-11.04-5.428-25.233-8.141-42.6-8.141c-31.12,0-50.835,10.311-59.153,30.932H3533.338z"
        />
	</g>
</g>
    <path style="fill:#4A46E5;" d="M1878.131,195.573c-66.386-66.386-154.637-102.953-248.527-102.953
	c-93.875,0-182.141,36.567-248.527,102.953c-66.385,66.371-102.938,154.638-102.938,248.527c0,93.874,36.553,182.14,102.938,248.525
	c66.386,66.386,154.652,102.939,248.527,102.939c193.802,0,351.48-157.664,351.48-351.465
	C1981.084,350.211,1944.516,261.944,1878.131,195.573z M1759.465,463.476l-183.97,160.966c-8.122,7.048-19.979,7.62-28.676,1.298
	c-8.696-6.326-11.856-17.82-7.617-27.666l55.263-128.995h-80.129c-9.627,0-18.18-5.961-21.557-14.876
	c-3.378-8.909-0.791-19.042,6.395-25.364l183.973-160.972c8.12-7.044,19.977-7.619,28.672-1.293
	c8.695,6.321,11.859,17.823,7.618,27.667l-55.264,128.922h80.127c9.558,0,18.183,6.035,21.561,14.945
	C1769.237,447.02,1766.651,457.148,1759.465,463.476z"/>
</svg>
